<svg width="157" height="30" viewBox="0 0 157 30" fill="none" xmlns="http://www.w3.org/2000/svg">
<path d="M53.5027 10.8179H51.0076V20.8079H53.5027V10.8179Z" fill="#2A3362"/>
<path d="M63.1597 17.2634C63.1597 18.6421 62.0197 19.2616 60.5019 19.2616C58.984 19.2616 57.9695 18.6421 57.9695 17.3333V13.7731H55.4744V17.784C55.4744 19.781 57.0836 20.9489 59.76 20.9489C61.442 20.9489 62.3821 20.4668 63.0125 19.9221H63.1581L63.3749 20.8091H65.6703V13.7731H63.1597V17.2634Z" fill="#2A3362"/>
<path d="M87.6359 19.4158C85.8098 19.4158 84.7799 18.7686 84.6172 17.8262H92.5364C92.5729 17.6302 92.5911 17.4324 92.5906 17.2344C92.5736 14.7035 90.1125 13.632 87.4795 13.632C84.4236 13.632 82.1267 15.0542 82.1267 17.3477C82.1267 19.5279 84.3338 20.9489 87.6421 20.9489C90.4098 20.9489 92.253 19.9931 92.634 18.5288H90.1682C89.86 19.1061 88.9741 19.4158 87.6359 19.4158ZM87.481 15.1663C89.0732 15.1663 89.9948 15.7146 90.1404 16.492H84.6714C84.9053 15.7472 85.8284 15.1663 87.4733 15.1663H87.481Z" fill="#2A3362"/>
<path d="M96.8297 14.783H96.6748L96.4394 13.7694H94.1719V20.809H96.667V17.784C96.667 16.4185 97.6784 15.6592 99.5603 15.6592C99.9021 15.6555 100.244 15.6789 100.579 15.7291V13.773H100.231C98.5675 13.773 97.5344 14.0406 96.8297 14.783Z" fill="#2A3362"/>
<path d="M112.831 18.6132H112.687L110.552 14.2094H107.984L105.887 18.5999H105.725L103.736 13.7731H101.258L104.314 20.8091H107.027L109.197 16.3197H109.341L111.475 20.8091H114.206L117.262 13.7731H114.784L112.831 18.6132Z" fill="#2A3362"/>
<path d="M127.193 18.7602V16.4052C127.193 14.4914 125.113 13.6332 122.526 13.6332C119.779 13.6332 118.061 14.6468 117.826 16.1642H120.321C120.502 15.5025 121.225 15.1373 122.526 15.1373C123.827 15.1373 124.695 15.517 124.695 16.2907V16.4703L120.626 16.7113C118.746 16.8246 117.373 17.4718 117.373 18.8506C117.373 20.2715 118.947 20.9465 121.261 20.9465C123.129 20.9465 124.267 20.5415 124.964 19.9305H125.088C125.48 20.6174 126.274 20.8067 127.139 20.8067H128.187V19.3737H127.952C127.427 19.3737 127.193 19.1772 127.193 18.7602ZM124.696 18.0142C124.696 19.1266 122.992 19.4918 121.532 19.4918C120.538 19.4918 119.887 19.2953 119.887 18.7602C119.887 18.2781 120.448 18.0431 121.281 17.9865L124.698 17.79L124.696 18.0142Z" fill="#2A3362"/>
<path d="M136.418 13.7731L133.506 18.8675H133.343L130.396 13.7731H127.701L131.914 20.8091H134.898L139.093 13.7731H136.418Z" fill="#2A3362"/>
<path d="M147.069 18.5288C146.759 19.1061 145.875 19.4158 144.537 19.4158C142.711 19.4158 141.681 18.7686 141.518 17.8262H149.437C149.474 17.6302 149.492 17.4324 149.491 17.2344C149.474 14.7035 147.013 13.632 144.38 13.632C141.324 13.632 139.029 15.0542 139.029 17.3477C139.029 19.5279 141.235 20.9489 144.543 20.9489C147.311 20.9489 149.154 19.9931 149.535 18.5288H147.069ZM144.374 15.1663C145.966 15.1663 146.888 15.7146 147.033 16.492H141.566C141.803 15.7472 142.723 15.1663 144.368 15.1663H144.374Z" fill="#2A3362"/>
<path d="M46.9527 13.2548C46.9527 12.6354 47.5133 12.369 48.2366 12.369C48.5731 12.3714 48.9075 12.4091 49.231 12.4811L49.6476 11.0734C49.0437 10.9072 48.408 10.8217 47.7673 10.8203C45.9227 10.8203 44.4405 11.5808 44.4405 13.156V13.7731H42.2876V15.3145H44.4405V20.8091H46.9527V15.3133H49.7653V13.7731H46.9527V13.2548Z" fill="#2A3362"/>
<path d="M71.1765 11.7893H68.8533L68.7232 13.7731H66.7593V15.3145H68.6767V18.7831C68.6767 19.9643 69.4511 20.9525 71.7744 20.9525C72.3767 20.9525 72.9771 20.9008 73.5648 20.7983V19.3171C73.226 19.3762 72.8805 19.4093 72.5333 19.4159C71.2865 19.4159 71.1781 18.8675 71.1781 18.4445V15.3109H73.6562V13.7731H71.1765V11.7893Z" fill="#2A3362"/>
<path d="M79.0118 11.7893H76.6963L76.5662 13.7731H74.5977V15.3145H76.5151V18.7831C76.5151 19.9643 77.2895 20.9525 79.6128 20.9525C80.2137 20.9511 80.8125 20.8981 81.3986 20.7946V19.3171C81.0597 19.3762 80.7142 19.4093 80.367 19.4159C79.1202 19.4159 79.0118 18.8675 79.0118 18.4445V15.3109H81.4977V13.7731H79.0118V11.7893Z" fill="#2A3362"/>
<path d="M7.55518 10.5515C7.55518 9.42224 7.97956 8.45807 8.87013 7.76508L10.419 8.97029C8.69511 10.3069 10.2006 14.4624 15.1088 18.2854C20.017 22.1083 25.3605 23.2785 27.0828 21.9396L28.6316 23.1448C25.726 25.4057 19.1079 23.8016 13.5677 19.4894C9.72508 16.498 7.55518 13.1042 7.55518 10.5515Z" fill="#009A46"/>
<path d="M17.3222 24.1837C15.8709 24.1837 14.6319 23.8534 13.7397 23.1604L15.2886 21.9552C17.0093 23.2942 22.3497 22.1228 27.2626 18.301C32.1754 14.4793 33.6778 10.3237 31.9571 8.98475L33.5059 7.77954C36.413 10.0405 34.35 15.1904 28.8083 19.5014C24.9641 22.4964 20.6026 24.1837 17.3222 24.1837Z" fill="#FF5805"/>
<path d="M29.321 17.7768C28.3809 15.67 26.4603 13.4187 23.9125 11.4373C18.3723 7.1251 11.7542 5.51976 8.84859 7.78194C8.6426 7.94344 8.82072 8.34237 9.24819 8.67501C9.67567 9.00764 10.1883 9.14504 10.3943 8.98475C12.1166 7.64576 17.457 8.81722 22.3683 12.6401C24.6916 14.448 26.4231 16.4667 27.258 18.3348C27.989 19.9727 27.9178 21.2936 27.0659 21.9564C26.8584 22.1167 27.038 22.5168 27.464 22.8483C27.8899 23.1797 28.4041 23.3195 28.6116 23.158C30.1001 21.9998 30.3525 20.0859 29.321 17.7768Z" fill="#F5AFCB"/>
<path d="M33.5027 7.78195C32.0112 6.62133 29.5547 6.42488 26.5841 7.22876C23.8783 7.95912 20.9835 9.45478 18.4372 11.4361C12.8971 15.7472 10.834 20.8971 13.7396 23.1592C13.9472 23.3195 14.4598 23.1809 14.8873 22.8495C15.3148 22.5181 15.4929 22.1179 15.2854 21.9564C13.56 20.6174 15.0701 16.4619 19.983 12.6389C22.3062 10.8311 24.9005 9.48371 27.3012 8.8341C29.406 8.26644 31.1036 8.32068 31.957 8.98355C32.163 9.14384 32.6772 9.00524 33.1031 8.6726C33.529 8.33996 33.7087 7.94224 33.5027 7.78195Z" fill="#FF9B00"/>
</svg>
