<svg width="63" height="25" viewBox="0 0 63 25" fill="none" xmlns="http://www.w3.org/2000/svg">
<g clip-path="url(#clip0_95_30)">
<path fill-rule="evenodd" clip-rule="evenodd" d="M9.46828 14.9213L9.49318 14.7065C9.77121 13.3692 9.1145 12.7961 7.04219 12.7961C5.04561 12.7961 4.16118 13.3692 3.90856 14.7065L3.85824 14.9451C3.58021 16.2828 4.49005 16.8802 6.28381 16.8802C8.12892 16.8802 9.24056 16.0676 9.46828 14.9213V14.9213ZM16.5183 13.9423L18.8941 1.2356C18.9152 1.12216 18.9776 1.01945 19.0701 0.945431C19.1627 0.871418 19.2796 0.830822 19.4003 0.83075H22.1724C22.2475 0.83082 22.3217 0.846568 22.3897 0.876888C22.4577 0.907209 22.518 0.951367 22.5662 1.00626C22.6145 1.06116 22.6495 1.12547 22.669 1.19467C22.6884 1.26387 22.6917 1.33629 22.6787 1.40684L21.9011 5.60728C22.8613 4.93864 23.9226 4.46103 25.8689 4.46103C29.6592 4.46103 31.15 6.84905 30.6194 9.69092L29.7349 14.3719C29.1031 17.7869 27.0059 19.435 22.3306 19.435C17.9339 19.435 15.9119 17.1188 16.5183 13.9423V13.9423ZM26.0457 13.7988L26.7533 10.0492C27.0308 8.56843 26.4244 7.56571 24.3775 7.56571C22.3057 7.56571 21.345 8.56843 21.067 10.0492L20.3595 13.7988C20.0814 15.2796 20.6883 16.2828 22.7601 16.2828C24.807 16.2828 25.7677 15.2796 26.0457 13.7988ZM46.1858 12.9391H36.4571L36.2548 14.0854C36.0271 15.3514 36.4312 16.4976 38.8578 16.4976C40.955 16.4976 41.966 15.9245 42.1932 14.7308C42.2002 14.697 42.2193 14.6665 42.2472 14.6447C42.2751 14.6228 42.3101 14.6109 42.3462 14.611H45.3766C45.4393 14.611 45.5012 14.624 45.5582 14.6489C45.6151 14.6739 45.6658 14.7103 45.7066 14.7556C45.7475 14.801 45.7776 14.8542 45.795 14.9116C45.8123 14.9691 45.8165 15.0295 45.8072 15.0886C45.2765 17.9067 43.1788 19.435 38.5543 19.435C33.9802 19.435 32.0096 17.0708 32.5905 14.0379L33.3992 9.61965C34.0814 6.18041 36.1791 4.46103 40.8538 4.46103C45.3522 4.46103 47.3483 6.77729 46.7673 9.88246L46.1864 12.9391H46.1858ZM37.0381 9.85821L36.912 10.5986H42.9516L43.103 9.83445C43.3811 8.30612 42.7244 7.39842 40.5509 7.39842C38.3017 7.39842 37.3161 8.40164 37.0381 9.85821V9.85821ZM55.0307 15.1841C57.103 15.1841 58.0631 14.1809 58.3412 12.7481L58.8215 10.0973C59.099 8.64019 58.4926 7.66123 56.4457 7.66123C54.3988 7.66123 53.4387 8.64019 53.1606 10.0973L52.6808 12.7481C52.4028 14.1809 52.9838 15.1841 55.0307 15.1841V15.1841ZM56.7995 4.46103C61.1968 4.46103 63.2691 6.8253 62.6622 10.0492L61.0453 18.6946C60.2864 22.6352 57.9366 24.0923 53.8179 24.0923H53.3884C49.7241 24.0923 47.3483 22.3487 47.7275 19.5068C47.7418 19.4331 47.7827 19.3666 47.843 19.3187C47.9034 19.2707 47.9794 19.2445 48.0579 19.2445H51.3918C51.1895 20.3427 52.0236 21.1069 53.7925 21.1069C56.0417 21.1069 56.9764 20.1279 57.229 18.7664L57.5828 16.9752C56.6231 17.6919 55.5867 18.0977 53.5653 18.0977C50.0778 18.0977 48.2836 15.829 48.8645 12.7006L49.4206 9.66716C50.0524 6.25217 52.1496 4.46054 56.7995 4.46054V4.46103ZM11.1401 2.71345C11.2184 2.71353 11.2955 2.73062 11.3658 2.76342C11.436 2.79622 11.4975 2.84387 11.5456 2.90275C11.5936 2.96163 11.627 3.03019 11.6431 3.10322C11.6592 3.17624 11.6577 3.25181 11.6386 3.32419L11.2553 4.7763C13.574 5.49395 14.7022 7.36873 14.2691 9.69092L13.3598 14.563C12.7995 17.5439 10.9788 18.9307 8.14812 19.3311L7.81094 20.6055C7.78298 20.7116 7.7187 20.8057 7.6283 20.873C7.5379 20.9402 7.42656 20.9767 7.31193 20.9767H4.28464C4.20632 20.9767 4.12903 20.9597 4.05866 20.9269C3.98829 20.8941 3.9267 20.8464 3.87857 20.7875C3.83044 20.7285 3.79705 20.6599 3.78095 20.5867C3.76484 20.5136 3.76644 20.4379 3.78562 20.3655L4.05484 19.3484C1.27602 18.9193 -0.282233 17.2791 0.0414524 14.9931L0.0922877 14.6585C0.446059 12.0552 2.31607 10.5269 6.6879 10.5269C8.35561 10.5269 9.59381 10.7659 10.1753 11.0762L10.4025 9.81069C10.6805 8.42539 10.0238 7.49394 8.1533 7.49394C6.58675 7.49394 5.4497 7.9953 5.2225 9.26083H1.58311C2.01469 6.36205 3.67306 4.79511 7.23671 4.50904L7.61383 3.08365C7.64199 2.97777 7.70635 2.88388 7.79673 2.81683C7.88712 2.74977 7.99835 2.7134 8.11284 2.71345H11.1396H11.1401Z" fill="#753FF6"/>
</g>
<defs>
<clipPath id="clip0_95_30">
<rect width="62.766" height="23.2615" fill="white" transform="translate(0 0.83075)"/>
</clipPath>
</defs>
</svg>
