<svg width="33" height="30" viewBox="0 0 33 30" fill="none" xmlns="http://www.w3.org/2000/svg">
<path d="M28.8566 0.923096H2.36441C1.46773 0.923096 0.734131 1.61539 0.734131 2.46156V5.23078C0.734131 6.07696 1.46773 6.76925 2.36441 6.76925H28.775C29.6717 6.76925 30.4053 6.07696 30.4053 5.23078V2.46156C30.4868 1.61539 29.7532 0.923096 28.8566 0.923096ZM28.8566 16.3846H2.36441C1.46773 16.3846 0.734131 17.0769 0.734131 17.9231V20.6923C0.734131 21.5385 1.46773 22.2308 2.36441 22.2308H28.775C29.6717 22.2308 30.4053 21.5385 30.4053 20.6923V17.9231C30.4868 17.0769 29.7532 16.3846 28.8566 16.3846V16.3846ZM17.2815 24.1539H2.36441C1.46773 24.1539 0.734131 24.8462 0.734131 25.6923V28.4615C0.734131 29.3077 1.46773 30 2.36441 30H17.2815C18.1782 30 18.9118 29.3077 18.9118 28.4615V25.6923C18.9118 24.8462 18.1782 24.1539 17.2815 24.1539V24.1539ZM30.4868 8.69233H2.36441C1.46773 8.69233 0.734131 9.38462 0.734131 10.2308V13C0.734131 13.8461 1.46773 14.5385 2.36441 14.5385H30.4868C31.3835 14.5385 32.1171 13.8461 32.1171 13V10.2308C32.1171 9.38462 31.3835 8.69233 30.4868 8.69233V8.69233Z" fill="#0BA4DB"/>
</svg>
